<svg width="721" height="550" viewBox="0 0 721 550" fill="none" xmlns="http://www.w3.org/2000/svg">
<path fill-rule="evenodd" clip-rule="evenodd" d="M367.268 13.5C413.96 9.54303 466.376 -11.7516 506.405 8.84592C547.972 30.2353 534.517 90.0803 570.247 117.947C610.87 149.63 708.472 129.703 719.831 175.304C731.984 224.098 646.131 251.564 613.958 293.437C595.453 317.522 589.075 346.28 570.139 370.127C551.918 393.076 522.395 407.548 504.84 430.861C477.073 467.735 484.258 529.233 436.893 547.079C394.444 563.073 354.64 508.323 308.302 504.914C253.731 500.899 196.079 547.357 147.669 525.799C102.046 505.483 113.649 444.888 88.4366 407.006C63.5936 369.678 -3.0317 346.778 0.107229 304.085C3.47095 258.333 68.2264 234.432 103.684 199.616C128.396 175.351 157.218 155.194 178.622 128.8C203.515 98.1025 204.34 53.2611 240.081 31.4162C275.237 9.92896 324.026 17.1647 367.268 13.5Z" fill="#F6ADE2" fill-opacity="0.51"/>
</svg>
